<svg width="20" height="16" viewBox="0 0 20 16" fill="none" xmlns="http://www.w3.org/2000/svg">
<path d="M2.25 6.5C1.42 6.5 0.75 7.17 0.75 8C0.75 8.83 1.42 9.5 2.25 9.5C3.08 9.5 3.75 8.83 3.75 8C3.75 7.17 3.08 6.5 2.25 6.5ZM2.25 0.5C1.42 0.5 0.75 1.17 0.75 2C0.75 2.83 1.42 3.5 2.25 3.5C3.08 3.5 3.75 2.83 3.75 2C3.75 1.17 3.08 0.5 2.25 0.5ZM2.25 12.5C1.42 12.5 0.75 13.18 0.75 14C0.75 14.82 1.43 15.5 2.25 15.5C3.07 15.5 3.75 14.82 3.75 14C3.75 13.18 3.08 12.5 2.25 12.5ZM5.25 15H19.25V13H5.25V15ZM5.25 9H19.25V7H5.25V9ZM5.25 1V3H19.25V1H5.25Z" fill="#98A2B3"/>
</svg>
